<?xml version="1.0" standalone="no"?>
<!DOCTYPE svg PUBLIC "-//W3C//DTD SVG 20010904//EN"
 "http://www.w3.org/TR/2001/REC-SVG-20010904/DTD/svg10.dtd">
<svg version="1.0" xmlns="http://www.w3.org/2000/svg"
 width="16.000000pt" height="16.000000pt" viewBox="0 0 16.000000 16.000000"
 preserveAspectRatio="xMidYMid meet">
<metadata>
Created by potrace 1.11, written by Peter Selinger 2001-2013
</metadata>
<g transform="translate(0.000000,16.000000) scale(0.002504,-0.002504)"
fill="#000000" stroke="none">
<path d="M790 3421 c0 -2914 0 -2970 19 -3032 52 -166 202 -282 444 -344 177
-45 249 -47 1247 -42 992 5 1021 6 1320 57 950 162 1532 673 1704 1498 52 248
51 225 51 1637 0 1414 1 1389 -52 1640 -166 796 -710 1298 -1603 1478 -356 72
-468 77 -1887 77 l-1243 0 0 -2969z m2635 2190 c44 -7 124 -21 179 -32 629
-127 984 -521 1055 -1171 15 -133 15 -2283 0 -2416 -45 -411 -208 -729 -478
-933 -142 -107 -377 -206 -586 -248 -190 -38 -274 -41 -1095 -41 l-800 0 0
2431 0 2431 823 -5 c559 -3 848 -8 902 -16z"/>
<path d="M3650 3284 l0 -295 80 -80 80 -79 285 0 285 0 0 300 c0 277 -1 301
-17 307 -21 8 -133 120 -133 134 0 5 -116 9 -290 9 l-290 0 0 -296z"/>
</g>
</svg>
